<svg width="171" height="43" viewBox="0 0 171 43" fill="none" xmlns="http://www.w3.org/2000/svg">
<g clip-path="url(#clip0)" filter="url(#filter0_dd)">
<path fill-rule="evenodd" clip-rule="evenodd" d="M3.849 0.702054V34.3021H17.381C19.5624 34.3554 21.7309 33.954 23.7487 33.1235C25.7665 32.293 27.5892 31.0515 29.101 29.4781C30.6506 27.9008 31.8665 26.0274 32.6761 23.9697C33.4857 21.9121 33.8724 19.7124 33.813 17.5021C33.8724 15.2917 33.4857 13.092 32.6761 11.0344C31.8665 8.97675 30.6506 7.10336 29.101 5.52605C27.5891 3.95276 25.7663 2.71136 23.7486 1.88085C21.7308 1.05034 19.5623 0.648895 17.381 0.702054H3.849ZM11.582 26.9101V8.09105H17.382C18.5845 8.04315 19.7838 8.24682 20.903 8.68901C22.0223 9.13121 23.0369 9.80221 23.882 10.6591C24.7304 11.5767 25.3875 12.6542 25.8149 13.8286C26.2422 15.003 26.4313 16.2508 26.371 17.4991C26.4313 18.7474 26.2423 19.9952 25.8149 21.1696C25.3876 22.344 24.7305 23.4215 23.882 24.3391C23.0371 25.1961 22.0225 25.8672 20.9032 26.3094C19.7839 26.7517 18.5845 26.9552 17.382 26.9071H11.582V26.9101ZM46.382 20.9581H58.464V13.6581H46.378V8.09105H59.669V0.702054H38.645V34.3021H59.91V26.9101H46.378V20.9581H46.382ZM82.725 34.3021L93.744 0.702054H85.286L77.795 25.4221L70.304 0.702054H61.847L72.866 34.3021H82.725ZM97.125 34.3021H104.858V0.702054H97.125V34.3021ZM135.74 32.8861C138.233 31.574 140.321 29.6076 141.781 27.1981L135.111 23.3581C134.381 24.659 133.279 25.7121 131.946 26.3821C130.505 27.1263 128.903 27.5041 127.282 27.4821C125.962 27.5449 124.643 27.3343 123.408 26.8635C122.173 26.3927 121.048 25.6718 120.105 24.7461C119.195 23.7792 118.489 22.6394 118.028 21.3943C117.568 20.1492 117.362 18.8242 117.423 17.4981C117.362 16.1719 117.568 14.8469 118.028 13.6018C118.489 12.3567 119.195 11.2169 120.105 10.2501C121.048 9.32428 122.173 8.60339 123.408 8.13258C124.643 7.66177 125.962 7.45119 127.282 7.51405C128.893 7.49104 130.486 7.86178 131.921 8.59405C133.263 9.27186 134.373 10.3327 135.111 11.6421L141.781 7.80205C140.294 5.39752 138.191 3.43384 135.691 2.11405C133.109 0.72096 130.216 0.0027445 127.282 0.0260544C117.503 -0.245946 109.485 7.71705 109.691 17.4981C109.483 27.2791 117.5 35.2451 127.279 34.9741C130.229 35.0013 133.138 34.2831 135.737 32.8861H135.74ZM153.621 20.9581H165.703V13.6581H153.618V8.09105H166.908V0.702054H145.885V34.3021H167.15V26.9101H153.618V20.9581H153.621Z" fill="#F0C52E"/>
</g>
<defs>
<filter id="filter0_dd" x="0" y="0" width="171" height="43" filterUnits="userSpaceOnUse" color-interpolation-filters="sRGB">
<feFlood flood-opacity="0" result="BackgroundImageFix"/>
<feColorMatrix in="SourceAlpha" type="matrix" values="0 0 0 0 0 0 0 0 0 0 0 0 0 0 0 0 0 0 127 0"/>
<feOffset dy="4"/>
<feGaussianBlur stdDeviation="2"/>
<feColorMatrix type="matrix" values="0 0 0 0 0 0 0 0 0 0 0 0 0 0 0 0 0 0 0.25 0"/>
<feBlend mode="normal" in2="BackgroundImageFix" result="effect1_dropShadow"/>
<feColorMatrix in="SourceAlpha" type="matrix" values="0 0 0 0 0 0 0 0 0 0 0 0 0 0 0 0 0 0 127 0"/>
<feOffset dy="4"/>
<feGaussianBlur stdDeviation="2"/>
<feColorMatrix type="matrix" values="0 0 0 0 0 0 0 0 0 0 0 0 0 0 0 0 0 0 0.25 0"/>
<feBlend mode="normal" in2="effect1_dropShadow" result="effect2_dropShadow"/>
<feBlend mode="normal" in="SourceGraphic" in2="effect2_dropShadow" result="shape"/>
</filter>
<clipPath id="clip0">
<rect width="163" height="35" fill="white" transform="translate(4)"/>
</clipPath>
</defs>
</svg>
