<svg width="10" height="10" viewBox="0 0 10 10" fill="none" xmlns="http://www.w3.org/2000/svg">
<g clip-path="url(#clip0)">
<path d="M9.86203 2.52171C9.79266 2.43992 9.69329 2.39317 9.58915 2.39317H7.65761V3.41881C7.65761 3.89009 7.25347 4.27351 6.75671 4.27351C6.25996 4.27351 5.85581 3.89009 5.85581 3.41881V2.39317H4.05401V3.41881C4.05401 3.89009 3.64987 4.27351 3.15311 4.27351C2.65635 4.27351 2.25221 3.89009 2.25221 3.41881V2.39317H0.320768C0.216534 2.39317 0.117164 2.43992 0.0477949 2.52171C-0.0216646 2.60351 -0.0545475 2.71257 -0.0426556 2.82146L0.605543 8.78462C0.617615 9.45692 1.14167 10 1.78419 10H8.12572C8.76815 10 9.29221 9.45693 9.30437 8.78453L9.95257 2.82137C9.96437 2.71257 9.93149 2.60351 9.86203 2.52171Z" fill="#231F20"/>
<path d="M3.15309 3.76068C3.35182 3.76068 3.51345 3.60735 3.51345 3.4188V1.53846C3.51345 1.01051 4.07462 0.683761 4.59453 0.683761H5.49543C6.04264 0.683761 6.39633 1.01923 6.39633 1.53846V3.4188C6.39633 3.60735 6.55804 3.76068 6.75669 3.76068C6.95534 3.76068 7.11705 3.60735 7.11705 3.4188V1.53846C7.11705 0.647009 6.43507 0 5.49543 0H4.59453C3.60101 0 2.79272 0.690171 2.79272 1.53846V3.4188C2.79272 3.60735 2.95435 3.76068 3.15309 3.76068Z" fill="#231F20"/>
</g>
<defs>
<clipPath id="clip0">
<rect width="10" height="10" fill="white"/>
</clipPath>
</defs>
</svg>
