<svg width="171" height="195" viewBox="0 0 171 195" fill="none" xmlns="http://www.w3.org/2000/svg">
<g clip-path="url(#clip0)">
<path d="M77.694 174.636C77.59 174.506 67.199 161.64 65.085 158.876C63.764 157.149 61.778 156.198 59.492 156.198C56.932 156.198 54.656 157.368 53.98 157.751L48.494 160.494C46.721 160.015 42.907 158.544 39.214 154.226C35.93 150.387 35.953 145.24 36.128 143.127L42.021 137.234C45.114 134.517 44.473 130.718 43.267 128.803L43.048 128.492C43.048 128.492 30.186 112.271 28.382 109.994C27.393 108.745 25.907 108.056 24.198 108.056C21.349 108.056 18.319 110.031 17.442 110.648C6.55699 118.397 5.85599 125.21 5.81099 125.961L5.78699 126.375L5.86099 126.784C12.273 162.51 31.887 177.921 41.314 185.327C42.462 186.228 43.454 187.008 44.168 187.633C50.731 193.38 57.93 194 60.721 194C63.096 193.999 65.201 193.595 66.81 192.829C71.176 190.751 76.235 184.819 77.682 183.051C80.183 179.992 78.965 176.452 77.85 174.843L77.694 174.636ZM63.801 186.509C63.302 186.746 62.231 187 60.72 187C59.16 187 53.688 186.666 48.776 182.368C47.922 181.621 46.863 180.789 45.637 179.825C36.943 172.995 18.908 158.824 12.857 126.141C13.146 125.162 14.686 121.203 21.477 116.37C22.129 115.917 22.985 115.466 23.596 115.228C26.427 118.8 35.006 129.62 37.098 132.258L29.57 139.785L29.367 140.84C29.286 141.262 27.456 151.249 33.894 158.777C40.18 166.126 47.144 167.444 48.477 167.633L49.559 167.787L57.203 163.964L57.421 163.846C57.702 163.679 58.756 163.198 59.492 163.198C59.528 163.198 59.557 163.199 59.58 163.201C61.729 166.001 70.685 177.098 72.08 178.825C72.081 178.829 72.082 178.832 72.084 178.835C69.522 181.93 65.911 185.504 63.801 186.509Z" fill="white"/>
<path d="M137.85 65.8239C143.362 60.6469 145.006 53.8489 142.883 45.0409C142.676 44.1849 142.035 43.4999 141.194 43.2389C140.352 42.9769 139.434 43.1789 138.78 43.7689L130.559 51.1719C129.121 50.3769 126.883 48.7209 126.094 45.8419L132.897 39.1129C133.844 38.1749 133.889 36.6599 133.001 35.6669L132.815 35.4599C132.622 35.2439 132.393 35.0639 132.137 34.9269C131.977 34.8409 128.149 32.8109 123.313 32.8109C118.604 32.8109 114.454 34.7319 111.311 38.3669C105.311 45.3049 106.754 53.4089 107.768 56.8379L104.28 60.3259L93.996 51.0899L98.713 47.8239L78.671 34.0999L68.07 44.7029L81.794 64.7439L85.06 60.0269L94.297 70.3089L91.002 73.6029C89.502 73.1249 87.119 72.5509 84.339 72.5509C78.91 72.5509 74.103 74.7249 70.377 78.9099C70.106 79.2389 63.778 87.0749 67.626 97.5309C67.91 98.3039 68.557 98.8869 69.355 99.0909C70.151 99.2939 71 99.0919 71.619 98.5499L79.914 91.2909C81.237 91.8579 83.536 93.3709 84.573 97.2159L77.189 104.732C76.555 105.377 76.319 106.314 76.572 107.182C76.825 108.05 77.526 108.714 78.407 108.919C78.517 108.944 81.131 109.542 84.582 109.542C91.422 109.542 96.694 107.271 99.827 102.975C103.19 98.3619 103.921 93.5419 103.821 89.8869L120.038 106.104L120.21 106.262C121.731 107.522 124.528 108.987 127.661 108.987C129.888 108.987 132.286 108.246 134.513 106.163L140.031 100.647L140.133 100.543C145.145 95.1849 142.391 88.8449 140.233 86.2409L123.288 69.2819C124.315 69.3879 125.436 69.4629 126.61 69.4629C131.498 69.4619 135.279 68.2379 137.85 65.8239ZM84.551 51.9779L81.817 55.9269L74.541 45.3019L79.272 40.5699L89.897 47.8459L85.947 50.5799L100.739 63.8659L96.645 67.9589L97.836 66.7669L84.551 51.9779ZM98.113 85.5019C98.222 85.8149 100.728 93.2479 95.785 100.029C93.015 103.827 88.037 104.555 84.385 104.541L89.088 99.7539C89.654 99.1779 89.908 98.3629 89.768 97.5669C87.977 87.4199 80.023 86.0829 79.685 86.0309C78.956 85.9209 78.214 86.1349 77.658 86.6199L71.454 92.0479C70.932 86.4879 73.867 82.5589 74.213 82.1159C76.934 79.0859 80.34 77.5499 84.338 77.5499C87.853 77.5499 90.569 78.7609 90.587 78.7699C91.54 79.2089 92.663 79.0109 93.405 78.2689L112.405 59.2689C113.13 58.5449 113.339 57.4529 112.932 56.5129C112.897 56.4299 109.438 48.1729 115.09 41.6369C117.285 39.0979 120.051 37.8109 123.311 37.8109C124.541 37.8109 125.694 37.9939 126.676 38.2319L121.629 43.2249C121.078 43.7689 120.811 44.5369 120.904 45.3049C121.916 53.6049 129.873 56.3819 130.211 56.4959C131.066 56.7839 132.012 56.5899 132.684 55.9849L138.733 50.5379C139.106 55.4019 137.713 59.0919 134.424 62.1799C132.416 64.0669 129.065 64.4629 126.606 64.4629C122.917 64.4629 119.655 63.5979 119.624 63.5899C118.759 63.3539 117.829 63.6039 117.194 64.2429L98.694 82.9099C98.023 83.5869 97.801 84.5999 98.113 85.5019ZM103.615 87.3439C103.615 87.3469 103.615 87.3489 103.615 87.3519C103.615 87.3489 103.615 87.3469 103.615 87.3439ZM103.434 86.2229C103.444 86.2749 103.454 86.3269 103.463 86.3809C103.453 86.3289 103.443 86.2739 103.434 86.2229ZM136.525 97.0789L131.046 102.555C127.798 105.535 124.146 102.987 123.47 102.468L104.827 83.8229L119.768 68.7479L117.733 70.8009L136.44 89.5069C136.9 90.0989 139.537 93.7939 136.525 97.0789ZM121.316 69.0249C121.324 69.0259 121.332 69.0269 121.339 69.0289C121.332 69.0269 121.324 69.0259 121.316 69.0249ZM120.473 68.8819C120.493 68.8859 120.518 68.8899 120.539 68.8939C120.516 68.8899 120.494 68.8859 120.473 68.8819Z" fill="white"/>
<path d="M104.162 6.00195C67.754 6.00195 38.24 35.516 38.24 71.924C38.24 105.441 63.26 133.096 95.638 137.278V163.502C95.638 163.502 153.077 142.259 167.607 89.88C167.685 89.597 167.746 89.342 167.818 89.068C167.931 88.644 168.043 88.218 168.148 87.791C168.212 87.528 168.267 87.277 168.326 87.022C169.463 82.171 170.084 77.121 170.084 71.924C170.084 35.516 140.57 6.00195 104.162 6.00195ZM161.51 85.424L161.504 85.451L161.498 85.478L161.469 85.608C161.43 85.778 161.393 85.947 161.35 86.123C161.256 86.499 161.159 86.8739 161.049 87.284L160.945 87.684C160.92 87.792 160.892 87.9 160.863 88.008C155.299 108.064 142.343 125.708 122.357 140.45C114.984 145.888 107.949 149.914 102.638 152.625V137.277V131.123L96.534 130.335C67.291 126.558 45.239 101.446 45.239 71.923C45.239 39.4329 71.671 13.001 104.161 13.001C136.649 13.001 163.083 39.4329 163.083 71.923C163.084 76.432 162.555 80.974 161.51 85.424Z" fill="white"/>
<path d="M54.583 187.998C51.792 187.998 44.5939 187.378 38.0289 181.634C37.3149 181.009 36.3229 180.23 35.1749 179.328C25.749 171.922 6.13395 156.511 -0.278051 120.785L-0.352051 120.376L-0.328051 119.962C-0.284051 119.21 0.41795 112.398 11.3029 104.649C12.1799 104.032 15.2099 102.057 18.0589 102.057C19.7669 102.057 21.2529 102.745 22.2429 103.995C24.0469 106.272 36.909 122.493 36.909 122.493L37.1279 122.804C38.334 124.719 38.9749 128.518 35.882 131.235L29.9889 137.128C29.8139 139.24 29.791 144.388 33.075 148.227C36.767 152.544 40.582 154.016 42.3549 154.495L47.841 151.752C48.5169 151.369 50.7929 150.199 53.353 150.199C55.639 150.199 57.625 151.15 58.9459 152.877C61.0599 155.641 71.4499 168.507 71.5549 168.637L71.7099 168.844C72.8249 170.453 74.0429 173.993 71.5419 177.052C70.0949 178.821 65.0369 184.752 60.6699 186.83C59.063 187.593 56.958 187.997 54.583 187.998ZM6.71995 120.14C12.7709 152.823 30.806 166.994 39.5 173.824C40.726 174.788 41.785 175.62 42.639 176.367C47.5509 180.665 53.0229 180.999 54.583 180.999C56.094 180.999 57.165 180.745 57.664 180.508C59.774 179.503 63.3859 175.929 65.9479 172.834C65.9469 172.831 65.9449 172.828 65.9439 172.824C64.5499 171.097 55.5929 160 53.444 157.2C53.421 157.198 53.3909 157.197 53.3559 157.197C52.6199 157.197 51.5659 157.678 51.285 157.845L51.067 157.963L43.423 161.786L42.341 161.632C41.0079 161.443 34.0439 160.124 27.7579 152.776C21.3199 145.249 23.15 135.261 23.2309 134.839L23.4339 133.784L30.9619 126.257C28.8699 123.618 20.2909 112.799 17.4599 109.227C16.8489 109.464 15.9929 109.915 15.3409 110.369C8.54795 115.202 7.00795 119.161 6.71995 120.14Z" fill="#3A3A3A"/>
<path d="M78.443 103.54C74.991 103.54 72.378 102.942 72.268 102.917C71.387 102.712 70.685 102.048 70.433 101.18C70.181 100.312 70.416 99.374 71.05 98.73L78.434 91.214C77.397 87.369 75.098 85.857 73.775 85.289L65.48 92.548C64.86 93.09 64.012 93.292 63.216 93.089C62.418 92.886 61.772 92.302 61.487 91.53C57.639 81.073 63.967 73.237 64.238 72.908C67.964 68.723 72.771 66.549 78.2 66.549C80.98 66.549 83.362 67.123 84.863 67.601L101.629 50.836C100.616 47.406 99.172 39.302 105.172 32.365C108.315 28.731 112.465 26.809 117.174 26.809C122.011 26.809 125.838 28.838 125.999 28.925C126.254 29.062 126.483 29.242 126.676 29.458L126.862 29.665C127.752 30.658 127.707 32.173 126.758 33.111L119.955 39.84C120.744 42.719 122.983 44.375 124.42 45.17L132.642 37.767C133.296 37.177 134.214 36.975 135.055 37.237C135.897 37.498 136.538 38.182 136.745 39.039C138.868 47.848 137.223 54.645 131.712 59.822C129.142 62.236 125.359 63.46 120.47 63.46C117.681 63.46 115.146 63.053 113.631 62.746L97.127 79.399C97.856 82.58 98.758 90.019 93.688 96.973C90.555 101.269 85.283 103.54 78.443 103.54ZM78.247 98.539C81.898 98.554 86.878 97.825 89.647 94.027C94.591 87.246 92.085 79.813 91.976 79.5C91.663 78.598 91.885 77.585 92.558 76.907L111.058 58.24C111.692 57.601 112.622 57.351 113.488 57.587C113.518 57.595 116.781 58.46 120.47 58.46C122.928 58.46 126.281 58.064 128.288 56.177C131.576 53.089 132.969 49.399 132.597 44.535L126.548 49.982C125.876 50.586 124.931 50.781 124.075 50.493C123.737 50.379 115.78 47.602 114.768 39.302C114.674 38.534 114.941 37.766 115.492 37.222L120.539 32.229C119.558 31.991 118.404 31.808 117.174 31.808C113.915 31.808 111.15 33.096 108.953 35.634C103.302 42.17 106.761 50.427 106.796 50.51C107.201 51.45 106.992 52.543 106.268 53.266L87.268 72.266C86.527 73.008 85.403 73.206 84.451 72.767C84.433 72.759 81.716 71.547 78.201 71.547C74.203 71.547 70.797 73.083 68.076 76.113C67.729 76.555 64.794 80.485 65.317 86.045L71.521 80.617C72.077 80.131 72.819 79.917 73.548 80.028C73.885 80.08 81.839 81.417 83.63 91.564C83.771 92.36 83.518 93.174 82.951 93.751L78.247 98.539Z" fill="#F0C42E"/>
<path d="M78.921 54.025L88.158 64.307L91.698 60.766L78.413 45.976L75.678 49.925L68.402 39.301L73.134 34.569L83.759 41.845L79.809 44.579L94.6 57.865L98.141 54.324L87.858 45.088L92.575 41.822L72.533 28.098L61.932 38.701L75.656 58.742L78.921 54.025Z" fill="#3A3A3A"/>
<path d="M117.147 63.28C115.734 63.134 114.507 62.924 113.63 62.746L111.596 64.799L130.302 83.505C130.762 84.097 133.399 87.792 130.386 91.077L124.908 96.553C121.66 99.533 118.007 96.985 117.332 96.466L98.69 77.821L97.127 79.399C97.372 80.469 97.632 82.029 97.682 83.884L113.899 100.102L114.072 100.26C115.593 101.52 118.39 102.985 121.522 102.985C123.75 102.985 126.147 102.244 128.375 100.161L133.893 94.645L133.995 94.542C139.007 89.184 136.252 82.843 134.094 80.239L117.147 63.28Z" fill="#3A3A3A"/>
<path d="M98.0231 7C130.512 7 156.945 33.432 156.945 65.922C156.945 70.43 156.416 74.972 155.372 79.422L155.366 79.449L155.359 79.476L155.33 79.606C155.292 79.776 155.254 79.945 155.212 80.121C155.118 80.497 155.021 80.872 154.91 81.282L154.807 81.682C154.781 81.79 154.753 81.898 154.724 82.006C149.16 102.062 136.204 119.706 116.218 134.448C108.845 139.886 101.81 143.912 96.4991 146.623V131.275V125.121L90.395 124.333C61.152 120.556 39.1011 95.444 39.1011 65.921C39.1021 33.432 65.5341 7 98.0231 7ZM98.0231 0C61.6161 0 32.1021 29.514 32.1021 65.922C32.1021 99.439 57.1221 127.094 89.5 131.276V157.5C89.5 157.5 146.939 136.257 161.47 83.878C161.548 83.595 161.608 83.34 161.68 83.066C161.794 82.642 161.905 82.216 162.011 81.789C162.074 81.526 162.13 81.275 162.188 81.02C163.326 76.169 163.946 71.119 163.946 65.922C163.945 29.514 134.432 0 98.0231 0Z" fill="#3A3A3A"/>
</g>
<defs>
<clipPath id="clip0">
<rect width="171" height="195" fill="white"/>
</clipPath>
</defs>
</svg>
